<svg width="25" height="24" viewBox="0 0 25 24" fill="none" xmlns="http://www.w3.org/2000/svg">
<path d="M12.0675 2.28749C12.2275 1.90417 12.7725 1.90417 12.9325 2.28749L15.3634 8.11167C15.4309 8.27326 15.5834 8.38368 15.7585 8.39766L22.0684 8.90174C22.4837 8.93492 22.6521 9.45136 22.3357 9.72144L17.5282 13.8251C17.3948 13.9389 17.3365 14.1176 17.3773 14.2878L18.8461 20.4235C18.9427 20.8274 18.5019 21.1465 18.1463 20.9301L12.7441 17.6421C12.5943 17.5509 12.4057 17.5509 12.2559 17.6421L6.85369 20.9301C6.49814 21.1465 6.05728 20.8274 6.15395 20.4235L7.62271 14.2878C7.66347 14.1176 7.60521 13.9389 7.47182 13.8251L2.66433 9.72144C2.34793 9.45136 2.51632 8.93492 2.93161 8.90174L9.24153 8.39766C9.4166 8.38368 9.56911 8.27326 9.63656 8.11167L12.0675 2.28749Z" fill="#FFBC1F"/>
</svg>
