<svg width="20" height="20" viewBox="0 0 20 20" fill="none" xmlns="http://www.w3.org/2000/svg">
<path fill-rule="evenodd" clip-rule="evenodd" d="M3.52273 2.875C3.165 2.875 2.875 3.165 2.875 3.52273V8.70455C2.875 9.06228 3.165 9.35227 3.52273 9.35227H8.70455C9.06228 9.35227 9.35227 9.06228 9.35227 8.70455V3.52273C9.35227 3.165 9.06228 2.875 8.70455 2.875H3.52273ZM4.17045 8.05682V4.17045H8.05682V8.05682H4.17045ZM11.2955 2.875C10.9377 2.875 10.6477 3.165 10.6477 3.52273V8.70455C10.6477 9.06228 10.9377 9.35227 11.2955 9.35227H16.4773C16.835 9.35227 17.125 9.06228 17.125 8.70455V3.52273C17.125 3.165 16.835 2.875 16.4773 2.875H11.2955ZM11.9432 8.05682V4.17045H15.8295V8.05682H11.9432ZM2.875 11.2955C2.875 10.9377 3.165 10.6477 3.52273 10.6477H8.70455C9.06228 10.6477 9.35227 10.9377 9.35227 11.2955V16.4773C9.35227 16.835 9.06228 17.125 8.70455 17.125H3.52273C3.165 17.125 2.875 16.835 2.875 16.4773V11.2955ZM4.17045 11.9432V15.8295H8.05682V11.9432H4.17045ZM11.2955 10.6477C10.9377 10.6477 10.6477 10.9377 10.6477 11.2955V16.4773C10.6477 16.835 10.9377 17.125 11.2955 17.125H16.4773C16.835 17.125 17.125 16.835 17.125 16.4773V11.2955C17.125 10.9377 16.835 10.6477 16.4773 10.6477H11.2955ZM11.9432 15.8295V11.9432H15.8295V15.8295H11.9432Z" fill="white"/>
</svg>
