<svg width="20" height="20" viewBox="0 0 20 20" fill="none" xmlns="http://www.w3.org/2000/svg">
<path fill-rule="evenodd" clip-rule="evenodd" d="M2.08325 10C2.08325 9.56282 2.43769 9.20837 2.87492 9.20837H17.1249C17.5621 9.20837 17.9166 9.56282 17.9166 10C17.9166 10.4373 17.5621 10.7917 17.1249 10.7917H2.87492C2.43769 10.7917 2.08325 10.4373 2.08325 10Z" fill="white"/>
<path fill-rule="evenodd" clip-rule="evenodd" d="M2.08325 5.25004C2.08325 4.81282 2.43769 4.45837 2.87492 4.45837H17.1249C17.5621 4.45837 17.9166 4.81282 17.9166 5.25004C17.9166 5.68727 17.5621 6.04171 17.1249 6.04171H2.87492C2.43769 6.04171 2.08325 5.68727 2.08325 5.25004Z" fill="white"/>
<path fill-rule="evenodd" clip-rule="evenodd" d="M2.08325 14.75C2.08325 14.3128 2.43769 13.9584 2.87492 13.9584H17.1249C17.5621 13.9584 17.9166 14.3128 17.9166 14.75C17.9166 15.1873 17.5621 15.5417 17.1249 15.5417H2.87492C2.43769 15.5417 2.08325 15.1873 2.08325 14.75Z" fill="white"/>
</svg>
