<svg width="20" height="20" viewBox="0 0 20 20" fill="none" xmlns="http://www.w3.org/2000/svg">
<path fill-rule="evenodd" clip-rule="evenodd" d="M2.0835 10.0002C2.0835 9.56294 2.43794 9.2085 2.87516 9.2085H17.1252C17.5624 9.2085 17.9168 9.56294 17.9168 10.0002C17.9168 10.4374 17.5624 10.7918 17.1252 10.7918H2.87516C2.43794 10.7918 2.0835 10.4374 2.0835 10.0002Z" fill="#A7A7A7"/>
<path fill-rule="evenodd" clip-rule="evenodd" d="M2.0835 5.25016C2.0835 4.81294 2.43794 4.4585 2.87516 4.4585H17.1252C17.5624 4.4585 17.9168 4.81294 17.9168 5.25016C17.9168 5.68739 17.5624 6.04183 17.1252 6.04183H2.87516C2.43794 6.04183 2.0835 5.68739 2.0835 5.25016Z" fill="#A7A7A7"/>
<path fill-rule="evenodd" clip-rule="evenodd" d="M2.0835 14.7502C2.0835 14.3129 2.43794 13.9585 2.87516 13.9585H17.1252C17.5624 13.9585 17.9168 14.3129 17.9168 14.7502C17.9168 15.1874 17.5624 15.5418 17.1252 15.5418H2.87516C2.43794 15.5418 2.0835 15.1874 2.0835 14.7502Z" fill="#A7A7A7"/>
</svg>
