<svg width="32" height="32" viewBox="0 0 32 32" fill="none" xmlns="http://www.w3.org/2000/svg">
<path fill-rule="evenodd" clip-rule="evenodd" d="M2.6665 16C2.6665 15.2636 3.26346 14.6666 3.99984 14.6666H27.9998C28.7362 14.6666 29.3332 15.2636 29.3332 16C29.3332 16.7363 28.7362 17.3333 27.9998 17.3333H3.99984C3.26346 17.3333 2.6665 16.7363 2.6665 16Z" fill="#363636"/>
<path fill-rule="evenodd" clip-rule="evenodd" d="M2.6665 7.99996C2.6665 7.26358 3.26346 6.66663 3.99984 6.66663H27.9998C28.7362 6.66663 29.3332 7.26358 29.3332 7.99996C29.3332 8.73634 28.7362 9.33329 27.9998 9.33329H3.99984C3.26346 9.33329 2.6665 8.73634 2.6665 7.99996Z" fill="#363636"/>
<path fill-rule="evenodd" clip-rule="evenodd" d="M2.6665 24C2.6665 23.2636 3.26346 22.6666 3.99984 22.6666H27.9998C28.7362 22.6666 29.3332 23.2636 29.3332 24C29.3332 24.7363 28.7362 25.3333 27.9998 25.3333H3.99984C3.26346 25.3333 2.6665 24.7363 2.6665 24Z" fill="#363636"/>
</svg>
