<svg width="24" height="25" viewBox="0 0 24 25" fill="none" xmlns="http://www.w3.org/2000/svg">
<path fill-rule="evenodd" clip-rule="evenodd" d="M2 12.7542C2 12.2019 2.44772 11.7542 3 11.7542H21C21.5523 11.7542 22 12.2019 22 12.7542C22 13.3064 21.5523 13.7542 21 13.7542H3C2.44772 13.7542 2 13.3064 2 12.7542Z" fill="#363636"/>
<path fill-rule="evenodd" clip-rule="evenodd" d="M2 6.75415C2 6.20187 2.44772 5.75415 3 5.75415H21C21.5523 5.75415 22 6.20187 22 6.75415C22 7.30644 21.5523 7.75415 21 7.75415H3C2.44772 7.75415 2 7.30644 2 6.75415Z" fill="#363636"/>
<path fill-rule="evenodd" clip-rule="evenodd" d="M2 18.7542C2 18.2019 2.44772 17.7542 3 17.7542H21C21.5523 17.7542 22 18.2019 22 18.7542C22 19.3064 21.5523 19.7542 21 19.7542H3C2.44772 19.7542 2 19.3064 2 18.7542Z" fill="#363636"/>
</svg>
